<svg width="1280" height="1802" viewBox="0 0 1280 1802" fill="none" xmlns="http://www.w3.org/2000/svg">
<g opacity="0.15">
<path opacity="0.0526316" d="M357.505 273.665C305.446 294.288 209.006 373.208 239.713 523.907C278.097 712.28 462.772 816.718 533.181 991.566C585.148 1120.62 634.535 1450.6 471.031 1604.66" stroke="#F6F5EF" stroke-width="1.45842"/>
<path opacity="0.105263" d="M459.82 262.748C405.241 278.532 299.125 348.095 311.295 500.071C326.508 690.042 498.291 809.925 547.183 989.356C583.269 1121.79 592.072 1452.98 409.672 1590.98" stroke="#F6F5EF" stroke-width="1.45842"/>
<path opacity="0.157895" d="M561.588 259.212C505.379 269.982 391.335 329.414 384.836 480.979C376.713 670.436 532.871 804.433 559.53 986.451C579.207 1120.79 547.423 1449.51 349.142 1569.91" stroke="#F6F5EF" stroke-width="1.45842"/>
<path opacity="0.210526" d="M1289.22 296.298C696.683 49.4105 483.881 317.194 458.804 466.71C427.457 653.606 567.218 800.269 571.571 982.909C574.784 1117.71 502.704 1440.4 289.631 1541.91" stroke="#F6F5EF" stroke-width="1.45842"/>
<path opacity="0.263158" d="M1249.23 314.521C810.303 126.994 576.323 311.351 532.948 457.152C478.729 639.404 600.356 797.1 582.319 978.325C569.007 1112.08 457.458 1425.15 232.185 1506.63" stroke="#F6F5EF" stroke-width="1.45842"/>
<path opacity="0.315789" d="M1240.54 324.387C964.758 202.635 668 311.881 606.801 452.371C530.302 627.983 632.462 794.981 592.23 972.809C562.536 1104.06 412.736 1404.08 177.729 1464.64" stroke="#F6F5EF" stroke-width="1.45842"/>
<path opacity="0.368421" d="M1237.58 340.478C1023.36 251.828 758.137 318.643 679.783 452.284C581.841 619.335 663.411 793.805 601.423 966.286C555.671 1093.59 369.257 1377.28 127.09 1416.26" stroke="#F6F5EF" stroke-width="1.45842"/>
<path opacity="0.421053" d="M1262.65 374.105C1070.02 273.94 845.975 331.442 751.321 456.771C633.005 613.433 693.091 793.462 610.022 958.71C548.711 1080.67 327.719 1344.93 81.0411 1361.91" stroke="#F6F5EF" stroke-width="1.45842"/>
<path opacity="0.473684" d="M1280.12 404.003C1067.35 342.244 930.765 350.008 820.847 465.652C683.451 610.208 721.392 793.822 618.151 950.025C541.952 1065.31 288.8 1307.24 40.3169 1302.04" stroke="#F6F5EF" stroke-width="1.45842"/>
<path opacity="0.526316" d="M1198.33 421.193C1146.49 396.739 1011.81 374.005 887.828 478.699C732.855 609.566 748.232 794.75 625.949 940.196C535.694 1047.55 253.155 1264.49 5.58847 1237.17" stroke="#F6F5EF" stroke-width="1.45842"/>
<path opacity="0.578947" d="M1268.98 466.424C1220.19 437.587 1088.44 403.062 951.761 495.661C780.907 611.409 773.549 796.134 633.559 929.234C530.236 1027.47 221.397 1217.06 -22.5427 1167.93" stroke="#F6F5EF" stroke-width="1.45842"/>
<path opacity="0.631579" d="M1332.6 515.559C1287.41 482.657 1160.05 436.723 1012.16 516.213C827.293 615.575 797.278 797.814 641.114 917.108C525.853 1005.16 194.099 1165.32 -43.5395 1094.92" stroke="#F6F5EF" stroke-width="1.45842"/>
<path opacity="0.684211" d="M1388.75 567.933C1347.64 531.327 1226.06 474.493 1068.58 540.004C871.731 621.892 819.386 799.641 648.758 903.823C522.822 980.717 171.785 1109.71 -56.9458 1018.81" stroke="#F6F5EF" stroke-width="1.45842"/>
<path opacity="0.736842" d="M1437.02 622.842C1400.45 582.938 1285.98 515.835 1120.64 566.65C913.96 630.169 839.856 801.471 656.633 889.398C521.401 954.295 154.928 1050.7 -62.3881 940.322" stroke="#F6F5EF" stroke-width="1.45842"/>
<path opacity="0.789474" d="M1477.1 679.548C1445.47 636.791 1339.37 560.169 1167.98 595.734C953.732 640.191 858.679 803.151 664.867 873.859C521.82 926.046 143.924 988.813 -59.5937 860.194" stroke="#F6F5EF" stroke-width="1.45842"/>
<path opacity="0.842105" d="M1508.79 737.283C1482.45 692.157 1385.89 606.888 1210.32 626.82C990.853 651.735 875.891 804.527 673.613 857.237C524.317 896.142 139.14 924.603 -48.3492 779.205" stroke="#F6F5EF" stroke-width="1.45842"/>
<path opacity="0.894737" d="M1531.96 795.49C1511.2 748.196 1425.23 654.64 1247.4 658.767C1025.13 663.925 891.514 805.78 682.986 840.155C529.077 865.527 140.837 859.378 -28.5666 697.806" stroke="#F6F5EF" stroke-width="1.45842"/>
<path opacity="0.947368" d="M1546.49 853.249C1531.54 804.627 1457.11 704.43 1279 692.612C1056.38 677.839 905.594 806.16 693.127 821.507C536.311 832.834 149.313 792.041 -0.129484 617.129" stroke="#F6F5EF" stroke-width="1.45842"/>
<path d="M1552.64 909.744C1543.66 860.292 1481.57 754.483 1305.12 726.872C1084.55 692.358 918.231 805.872 704.126 802.073C546.101 799.268 164.533 724.316 36.6702 537.866" stroke="#F6F5EF" stroke-width="1.45842"/>
</g>
</svg>
