<svg width="14" height="14" viewBox="0 0 14 14" fill="none" xmlns="http://www.w3.org/2000/svg">
<path d="M10.738 2.422C10.5719 2.422 10.4095 2.47127 10.2713 2.56357C10.1332 2.65587 10.0255 2.78706 9.96194 2.94055C9.89836 3.09404 9.88173 3.26293 9.91414 3.42588C9.94655 3.58882 10.0266 3.73849 10.144 3.85597C10.2615 3.97345 10.4112 4.05345 10.5741 4.08586C10.7371 4.11827 10.906 4.10164 11.0595 4.03806C11.2129 3.97448 11.3441 3.86682 11.4364 3.72868C11.5287 3.59054 11.578 3.42814 11.578 3.262C11.578 3.03922 11.4895 2.82556 11.332 2.66803C11.1744 2.5105 10.9608 2.422 10.738 2.422ZM13.958 4.116C13.9444 3.53521 13.8356 2.96058 13.636 2.415C13.458 1.94819 13.181 1.52549 12.824 1.176C12.4774 0.817198 12.0537 0.541924 11.585 0.371C11.0409 0.165313 10.4656 0.054047 9.884 0.042C9.142 -3.91155e-08 8.904 0 7 0C5.096 0 4.858 -3.91155e-08 4.116 0.042C3.53441 0.054047 2.95914 0.165313 2.415 0.371C1.94717 0.543654 1.52385 0.818692 1.176 1.176C0.817198 1.52262 0.541924 1.94631 0.371 2.415C0.165313 2.95914 0.054047 3.53441 0.042 4.116C-3.91155e-08 4.858 0 5.096 0 7C0 8.904 -3.91155e-08 9.142 0.042 9.884C0.054047 10.4656 0.165313 11.0409 0.371 11.585C0.541924 12.0537 0.817198 12.4774 1.176 12.824C1.52385 13.1813 1.94717 13.4563 2.415 13.629C2.95914 13.8347 3.53441 13.946 4.116 13.958C4.858 14 5.096 14 7 14C8.904 14 9.142 14 9.884 13.958C10.4656 13.946 11.0409 13.8347 11.585 13.629C12.0537 13.4581 12.4774 13.1828 12.824 12.824C13.1826 12.4758 13.4598 12.0527 13.636 11.585C13.8356 11.0394 13.9444 10.4648 13.958 9.884C13.958 9.142 14 8.904 14 7C14 5.096 14 4.858 13.958 4.116ZM12.698 9.8C12.6929 10.2443 12.6124 10.6846 12.46 11.102C12.3482 11.4066 12.1687 11.6819 11.935 11.907C11.708 12.1384 11.4333 12.3175 11.13 12.432C10.7126 12.5844 10.2723 12.6649 9.828 12.67C9.128 12.705 8.869 12.712 7.028 12.712C5.187 12.712 4.928 12.712 4.228 12.67C3.76662 12.6786 3.30722 12.6076 2.87 12.46C2.58005 12.3397 2.31795 12.161 2.1 11.935C1.86766 11.7101 1.69039 11.4346 1.582 11.13C1.4111 10.7066 1.31631 10.2564 1.302 9.8C1.302 9.1 1.26 8.841 1.26 7C1.26 5.159 1.26 4.9 1.302 4.2C1.30514 3.74574 1.38807 3.29556 1.547 2.87C1.67023 2.57454 1.85939 2.31116 2.1 2.1C2.31267 1.85932 2.5755 1.66817 2.87 1.54C3.29669 1.38603 3.7464 1.30556 4.2 1.302C4.9 1.302 5.159 1.26 7 1.26C8.841 1.26 9.1 1.26 9.8 1.302C10.2443 1.3071 10.6846 1.38757 11.102 1.54C11.4201 1.65806 11.7056 1.84999 11.935 2.1C12.1644 2.31502 12.3436 2.57791 12.46 2.87C12.6156 3.29625 12.6961 3.74625 12.698 4.2C12.733 4.9 12.74 5.159 12.74 7C12.74 8.841 12.733 9.1 12.698 9.8ZM7 3.409C6.29007 3.41038 5.59647 3.62217 5.00686 4.01759C4.41724 4.41302 3.95806 4.97434 3.68734 5.63063C3.41662 6.28692 3.34651 7.00873 3.48586 7.70485C3.6252 8.40097 3.96777 9.04017 4.47025 9.54169C4.97274 10.0432 5.61261 10.3845 6.309 10.5225C7.0054 10.6605 7.72707 10.589 8.38283 10.317C9.03859 10.045 9.59901 9.58471 9.99329 8.99432C10.3876 8.40394 10.598 7.70993 10.598 7C10.5989 6.52757 10.5064 6.05962 10.3259 5.62307C10.1453 5.18651 9.88019 4.78997 9.54581 4.45624C9.21143 4.1225 8.81436 3.85817 8.37746 3.67845C7.94055 3.49873 7.47242 3.40715 7 3.409ZM7 9.331C6.53897 9.331 6.0883 9.19429 5.70497 8.93816C5.32163 8.68202 5.02286 8.31797 4.84644 7.89204C4.67001 7.4661 4.62385 6.99741 4.71379 6.54524C4.80373 6.09307 5.02574 5.67773 5.35173 5.35173C5.67773 5.02574 6.09307 4.80373 6.54524 4.71379C6.99741 4.62385 7.4661 4.67001 7.89204 4.84644C8.31797 5.02286 8.68202 5.32163 8.93816 5.70497C9.19429 6.0883 9.331 6.53897 9.331 7C9.331 7.30611 9.27071 7.60922 9.15356 7.89204C9.03642 8.17484 8.86472 8.43181 8.64827 8.64827C8.43181 8.86472 8.17484 9.03642 7.89204 9.15356C7.60922 9.27071 7.30611 9.331 7 9.331Z" fill="#F6F5EF"/>
</svg>
