<svg width="172" height="18" viewBox="0 0 172 18" fill="none" xmlns="http://www.w3.org/2000/svg">
<mask id="mask0_3500_82" style="mask-type:alpha" maskUnits="userSpaceOnUse" x="0" y="0" width="18" height="18">
<path d="M0 14.412L4.0605 18H15.972L17.6775 15.6038L0.0015 14.412H0ZM10.4887 0V14.3048L15.9705 14.682L10.4887 0ZM9.74175 2.4105L1.82175 13.6807L9.74175 14.2155V2.4105Z" fill="black"/>
</mask>
<g mask="url(#mask0_3500_82)">
<path d="M0 0H18V18H0V0Z" fill="url(#paint0_linear_3500_82)"/>
</g>
<path d="M29.3227 13.8343V10.395L26 4.16575H28.0502L30.2418 8.62707L32.4192 4.16575H34.4411L31.1325 10.395V13.8343H29.3227Z" fill="#F6F5EF"/>
<path d="M34.2424 13.8343L37.862 4.16575H39.898L43.5177 13.8343H41.5947L40.803 11.5967H36.943L36.137 13.8343H34.2424ZM37.4378 10.2155H40.3081L38.8659 6.19613L37.4378 10.2155Z" fill="#F6F5EF"/>
<path d="M49.1328 14C48.1336 14 47.2759 13.7928 46.5595 13.3785C45.8431 12.9549 45.2917 12.3702 44.9052 11.6243C44.5187 10.8692 44.3255 9.99908 44.3255 9.01381C44.3255 8.02854 44.5187 7.15838 44.9052 6.40331C45.2917 5.64825 45.8431 5.05893 46.5595 4.63536C47.2759 4.21179 48.1336 4 49.1328 4C50.3205 4 51.2914 4.29005 52.0455 4.87016C52.809 5.44107 53.285 6.24678 53.4735 7.28729H51.4799C51.3574 6.76243 51.0934 6.35267 50.6881 6.05801C50.2922 5.75414 49.7644 5.60221 49.1045 5.60221C48.1902 5.60221 47.4738 5.90608 46.9554 6.51381C46.4369 7.12155 46.1777 7.95488 46.1777 9.01381C46.1777 10.0727 46.4369 10.9061 46.9554 11.5138C47.4738 12.1123 48.1902 12.4116 49.1045 12.4116C49.7644 12.4116 50.2922 12.2735 50.6881 11.9972C51.0934 11.7118 51.3574 11.3204 51.4799 10.8232H53.4735C53.285 11.8177 52.809 12.5958 52.0455 13.1575C51.2914 13.7192 50.3205 14 49.1328 14Z" fill="#F6F5EF"/>
<path d="M55.4998 13.8343V4.16575H57.3096V8.18508H61.7493V4.16575H63.5591V13.8343H61.7493V9.62155H57.3096V13.8343H55.4998Z" fill="#F6F5EF"/>
<path d="M68.2117 13.8343V5.5884H65.3273V4.16575H72.92V5.5884H70.0215V13.8343H68.2117Z" fill="#F6F5EF"/>
<path d="M77.8419 13.8343L81.4615 4.16575H83.4975L87.1172 13.8343H85.1942L84.4025 11.5967H80.5425L79.7365 13.8343H77.8419ZM81.0373 10.2155H83.9076L82.4654 6.19613L81.0373 10.2155Z" fill="#F6F5EF"/>
<path d="M88.8163 13.8343V4.16575H92.1956C93.355 4.16575 94.307 4.36832 95.0517 4.77348C95.8058 5.16943 96.3619 5.73112 96.7201 6.45856C97.0877 7.1768 97.2715 8.02394 97.2715 9C97.2715 9.97606 97.0877 10.8278 96.7201 11.5552C96.3619 12.2735 95.8058 12.8352 95.0517 13.2403C94.307 13.6363 93.355 13.8343 92.1956 13.8343H88.8163ZM90.6261 12.3149H92.1107C92.9402 12.3149 93.5954 12.186 94.0761 11.9282C94.5568 11.6611 94.9009 11.2836 95.1082 10.7956C95.3156 10.2983 95.4193 9.69982 95.4193 9C95.4193 8.30939 95.3156 7.71547 95.1082 7.21823C94.9009 6.72099 94.5568 6.33886 94.0761 6.07182C93.5954 5.80479 92.9402 5.67127 92.1107 5.67127H90.6261V12.3149Z" fill="#F6F5EF"/>
<path d="M101.831 13.8343L98.2118 4.16575H100.149L102.948 12.0249L105.762 4.16575H107.671L104.051 13.8343H101.831Z" fill="#F6F5EF"/>
<path d="M109.272 13.8343V4.16575H115.733V5.5884H111.082V8.24033H115.309V9.62155H111.082V12.4116H115.733V13.8343H109.272Z" fill="#F6F5EF"/>
<path d="M117.87 13.8343V4.16575H119.68L124.332 10.9751V4.16575H126.142V13.8343H124.332L119.68 7.03867V13.8343H117.87Z" fill="#F6F5EF"/>
<path d="M130.789 13.8343V5.5884H127.905V4.16575H135.497V5.5884H132.599V13.8343H130.789Z" fill="#F6F5EF"/>
<path d="M141.08 14C140.354 14 139.699 13.8619 139.115 13.5856C138.53 13.3002 138.064 12.872 137.715 12.3011C137.375 11.7302 137.206 11.0074 137.206 10.1326V4.16575H139.016V10.1464C139.016 10.9015 139.199 11.4632 139.567 11.8315C139.944 12.1998 140.463 12.384 141.122 12.384C141.773 12.384 142.286 12.1998 142.664 11.8315C143.041 11.4632 143.229 10.9015 143.229 10.1464V4.16575H145.039V10.1326C145.039 11.0074 144.86 11.7302 144.502 12.3011C144.143 12.872 143.663 13.3002 143.059 13.5856C142.466 13.8619 141.806 14 141.08 14Z" fill="#F6F5EF"/>
<path d="M147.311 13.8343V4.16575H150.944C151.736 4.16575 152.387 4.29926 152.896 4.5663C153.414 4.82413 153.8 5.17864 154.055 5.62983C154.309 6.07182 154.437 6.56446 154.437 7.10773C154.437 7.69705 154.276 8.23573 153.956 8.72376C153.645 9.21179 153.155 9.5663 152.485 9.78729L154.536 13.8343H152.457L150.619 10.0221H149.12V13.8343H147.311ZM149.12 8.72376H150.831C151.434 8.72376 151.878 8.58103 152.16 8.29558C152.443 8.01013 152.584 7.6326 152.584 7.16298C152.584 6.70258 152.443 6.33425 152.16 6.05801C151.887 5.78177 151.439 5.64365 150.817 5.64365H149.12V8.72376Z" fill="#F6F5EF"/>
<path d="M156.544 13.8343V4.16575H163.006V5.5884H158.354V8.24033H162.582V9.62155H158.354V12.4116H163.006V13.8343H156.544Z" fill="#F6F5EF"/>
<path d="M168.522 14C167.796 14 167.155 13.8803 166.599 13.6409C166.043 13.3923 165.604 13.0424 165.284 12.5912C164.963 12.1308 164.798 11.5737 164.789 10.9199H166.698C166.717 11.3711 166.882 11.7532 167.193 12.0663C167.513 12.3702 167.951 12.5221 168.508 12.5221C168.988 12.5221 169.37 12.4116 169.653 12.1906C169.936 11.9604 170.077 11.6565 170.077 11.279C170.077 10.8831 169.95 10.5746 169.695 10.3536C169.45 10.1326 169.12 9.95304 168.706 9.81492C168.291 9.6768 167.848 9.52947 167.376 9.37293C166.613 9.1151 166.029 8.78361 165.623 8.37845C165.227 7.9733 165.029 7.43462 165.029 6.76243C165.02 6.19153 165.157 5.7035 165.439 5.29834C165.732 4.88398 166.128 4.5663 166.627 4.3453C167.127 4.1151 167.702 4 168.352 4C169.012 4 169.592 4.1151 170.091 4.3453C170.6 4.57551 170.996 4.89779 171.279 5.31215C171.571 5.72652 171.727 6.21915 171.746 6.79005H169.808C169.799 6.44935 169.662 6.15009 169.398 5.89226C169.144 5.62523 168.786 5.49171 168.324 5.49171C167.928 5.4825 167.593 5.57919 167.32 5.78177C167.056 5.97514 166.924 6.26059 166.924 6.63812C166.924 6.96041 167.028 7.21823 167.235 7.4116C167.442 7.59576 167.725 7.7523 168.083 7.88122C168.442 8.01013 168.852 8.14825 169.314 8.29558C169.804 8.46133 170.251 8.6547 170.657 8.87569C171.062 9.09668 171.387 9.39134 171.632 9.75967C171.877 10.1188 172 10.5838 172 11.1547C172 11.6611 171.868 12.1308 171.604 12.5635C171.34 12.9963 170.949 13.3462 170.431 13.6133C169.912 13.8711 169.276 14 168.522 14Z" fill="#F6F5EF"/>
<defs>
<linearGradient id="paint0_linear_3500_82" x1="7.66484" y1="2.72868e-06" x2="16.8581" y2="0.347733" gradientUnits="userSpaceOnUse">
<stop stop-color="#BEC7C2"/>
<stop offset="1" stop-color="#A1B5BA"/>
</linearGradient>
</defs>
</svg>
