<svg width="14" height="14" viewBox="0 0 14 14" fill="none" xmlns="http://www.w3.org/2000/svg">
<path fill-rule="evenodd" clip-rule="evenodd" d="M10.6047 2.62469C10.0097 2.58969 8.78469 2.55469 6.92969 2.55469H6.68468C4.89968 2.55469 3.7097 2.58969 3.1147 2.65969C2.3097 2.72969 1.74968 2.93969 1.43468 3.21969C1.15468 3.46469 0.944692 3.91969 0.874692 4.51469C0.839692 4.89969 0.804688 5.70469 0.804688 6.92969V7.10469C0.804688 8.25969 0.839683 9.06469 0.909683 9.44969C1.01468 10.0097 1.1897 10.4297 1.5397 10.6747C1.8897 10.9547 2.48469 11.1297 3.32469 11.1997C3.91969 11.2347 5.14469 11.2697 6.99969 11.2697H7.2447C9.0297 11.2697 10.2197 11.2347 10.8147 11.1647C11.6197 11.0947 12.1797 10.8847 12.4947 10.6047C12.7747 10.3597 12.9847 9.90469 13.0547 9.30969C13.0897 8.92469 13.1247 8.11969 13.1247 6.89469V6.71969C13.1247 5.56469 13.0897 4.75969 13.0197 4.37469C12.9147 3.81469 12.7397 3.39469 12.3897 3.14969C12.0397 2.86969 11.4447 2.69469 10.6047 2.62469ZM9.2397 6.92969L5.3897 9.23969V4.61969L9.2397 6.92969Z" fill="#F6F5EF"/>
</svg>
